<svg width="37" height="34" viewBox="0 0 37 34" fill="none" xmlns="http://www.w3.org/2000/svg">
<path d="M35.602 16.28C33.02 12.519 27.682 18.054 17.94 19.179C14.333 19.595 11.083 22.607 6.893 22.32C5.175 22.202 2.776 17.259 0.98 18.047C0.056 18.453 -0.368 19.808 0.582 20.826L11.13 33.412C11.13 33.412 11.666 34.03 13.472 33.602C13.917 33.733 20.607 31.052 24.475 25.685C25.401 24.4 26.505 23.33 27.648 22.436C31.359 19.692 35.393 18.736 35.393 18.736C35.909 18.31 36.03 17.857 36.002 17.464C36.036 16.808 35.602 16.28 35.602 16.28V16.28Z" fill="#5C913B"/>
<path d="M11.476 10.274C7.693 15.524 1.068 18.011 1.068 18.011C-0.168 19.058 0.876 20.292 0.876 20.292L11.314 32.651C11.314 32.651 11.836 33.268 13.594 32.84C13.594 32.84 20.219 30.358 24.001 25.108C27.9 19.698 34.931 17.99 34.931 17.99C36.166 16.943 35.123 15.707 35.123 15.707L24.685 3.35C24.685 3.35 24.163 2.732 22.405 3.158C22.405 3.158 15.375 4.862 11.476 10.274V10.274Z" fill="#A7D28B"/>
<path d="M22 19.5C25.0376 19.5 27.5 17.0376 27.5 14C27.5 10.9624 25.0376 8.5 22 8.5C18.9624 8.5 16.5 10.9624 16.5 14C16.5 17.0376 18.9624 19.5 22 19.5Z" fill="#77B255"/>
<path d="M12.873 31.929C11.992 31.929 11.669 31.601 11.625 31.551L2.216 20.568C2.198 20.547 1.721 20.001 1.779 19.307C1.814 18.886 2.032 18.511 2.426 18.192L2.489 18.154C2.55 18.13 8.652 15.622 12.072 11.089L12.272 11.239L12.072 11.089C15.69 6.293 21.931 4.235 21.993 4.215C23.738 3.809 24.309 4.389 24.37 4.457L33.655 15.501C33.672 15.519 34.148 16.067 34.09 16.762C34.055 17.182 33.837 17.557 33.443 17.876L33.344 17.925C33.283 17.94 27.215 19.448 23.7 24.106C20.201 28.746 14.093 31.748 14.032 31.777C13.568 31.887 13.186 31.929 12.873 31.929V31.929ZM12.002 31.222C12.003 31.222 12.454 31.638 13.867 31.31C13.875 31.299 19.876 28.348 23.303 23.806C26.74 19.251 32.528 17.624 33.17 17.455C33.427 17.234 33.569 16.989 33.592 16.726C33.634 16.246 33.28 15.833 33.277 15.829L23.992 4.784C23.99 4.784 23.542 4.369 22.128 4.697C22.087 4.711 15.993 6.723 12.472 11.39C9.106 15.851 3.233 18.385 2.714 18.603C2.446 18.828 2.3 19.079 2.277 19.348C2.237 19.824 2.589 20.235 2.592 20.239L12.002 31.222V31.222Z" fill="#5C913B"/>
<path d="M21.276 22.166L21.27 28.106L21.767 28.696C22.736 27.812 23.667 26.818 24.472 25.7C25.307 24.542 26.277 23.551 27.3 22.714L26.817 22.139L21.276 22.166V22.166Z" fill="#FFAC33"/>
<path d="M26.798 22.118L14.292 7.305C13.276 8.141 12.3 9.116 11.47 10.269C10.659 11.395 9.715 12.386 8.735 13.26L10.197 14.991L10.196 14.992L21.271 28.106C22.251 27.231 23.184 26.23 23.996 25.103C24.826 23.951 25.801 22.977 26.816 22.141L26.797 22.118H26.798V22.118Z" fill="#FFE8B6"/>
<path d="M14.479 22.555C12.922 20.711 9.626 23.703 8.686 22.59C8.231 22.051 8.524 21.352 9.122 20.848C10.127 19.998 10.852 20.493 11.307 20.108C11.63 19.836 11.613 19.503 11.421 19.274C10.975 18.747 9.835 19.022 8.949 19.534L8.518 19.024C8.249 18.706 7.773 18.665 7.455 18.934C7.137 19.204 7.097 19.678 7.366 19.996L7.812 20.525C7.135 21.423 6.905 22.615 7.706 23.562C9.202 25.332 12.539 22.39 13.589 23.634C13.953 24.066 13.851 24.89 13.085 25.536C11.937 26.507 10.897 26.052 10.43 26.446C10.202 26.637 10.161 27.001 10.404 27.29C10.791 27.747 12.024 27.649 13.209 26.911C13.211 26.913 13.211 26.915 13.211 26.917L13.698 27.493C13.967 27.811 14.444 27.85 14.762 27.583C15.081 27.313 15.12 26.837 14.851 26.519L14.364 25.943C14.359 25.937 14.351 25.933 14.345 25.927C15.144 24.949 15.414 23.66 14.479 22.555V22.555Z" fill="#5C913B"/>
<path d="M32.456 32.588C32.465 32.58 32.475 32.574 32.484 32.567C32.552 32.499 32.605 32.421 32.665 32.346C32.707 32.294 32.754 32.244 32.793 32.191C32.828 32.141 32.857 32.09 32.889 32.039C34.309 29.852 33.379 26.144 30.568 23.332C27.756 20.52 24.047 19.59 21.861 21.011C21.809 21.042 21.758 21.071 21.708 21.107C21.655 21.146 21.604 21.193 21.554 21.234C21.48 21.295 21.402 21.347 21.333 21.416C21.324 21.425 21.318 21.435 21.311 21.444C21.3 21.455 21.287 21.462 21.275 21.474L21.281 21.479C20.281 22.541 20.269 24.184 21.275 25.191C22.283 26.199 23.925 26.185 24.988 25.185L24.999 25.197C24.978 25.217 24.955 25.23 24.935 25.25C23.876 26.309 23.851 27.998 24.876 29.025C25.902 30.05 27.593 30.025 28.651 28.966C28.671 28.946 28.684 28.923 28.704 28.902L28.715 28.914C27.715 29.976 27.702 31.619 28.71 32.627C29.717 33.633 31.359 33.621 32.421 32.621L32.427 32.627C32.437 32.613 32.445 32.6 32.456 32.588V32.588Z" fill="#E1E8ED"/>
<path d="M21.277 25.231C22.183 26.136 23.598 26.21 24.647 25.492C25.086 24.742 25.212 24.029 25.212 23.806C23.005 25.452 21.035 23.815 20.594 22.836C20.411 23.682 20.633 24.586 21.277 25.231ZM28.576 29.071C28.874 28.652 29.105 28.247 29.213 27.973C27.808 29.261 25.122 28.318 24.308 26.275C23.95 27.225 24.133 28.319 24.879 29.065C25.881 30.067 27.513 30.059 28.576 29.071ZM32.43 32.666L32.459 32.63C32.469 32.622 32.479 32.616 32.487 32.608C32.556 32.54 32.609 32.462 32.668 32.388C32.711 32.335 32.757 32.286 32.796 32.232C32.832 32.183 32.861 32.131 32.893 32.08C32.958 31.98 32.993 31.862 33.048 31.756C30.52 32.887 28.633 30.968 28.104 30.011C27.809 30.928 28.001 31.955 28.713 32.668C29.719 33.675 31.361 33.663 32.424 32.662L32.43 32.666Z" fill="#CCD6DD"/>
<path d="M13.956 12.498L13.984 12.476C14.053 12.408 14.106 12.33 14.165 12.256C14.207 12.204 14.253 12.155 14.292 12.101C14.328 12.051 14.357 12 14.389 11.949C15.809 9.762 14.878 6.053 12.067 3.242C9.255 0.43 5.547 -0.501 3.36 0.919C3.309 0.951 3.257 0.98 3.207 1.016C3.153 1.055 3.104 1.101 3.052 1.143C2.978 1.203 2.9 1.255 2.832 1.324C2.823 1.333 2.817 1.344 2.81 1.352C2.799 1.362 2.785 1.371 2.774 1.382L2.779 1.387C1.779 2.449 1.767 4.092 2.774 5.099C3.781 6.106 5.424 6.094 6.486 5.094L6.497 5.105C6.476 5.124 6.453 5.138 6.433 5.158C5.374 6.217 5.349 7.906 6.375 8.933C7.401 9.96 9.091 9.934 10.15 8.875C10.17 8.855 10.183 8.832 10.203 8.811L10.214 8.822C9.214 9.884 9.201 11.527 10.209 12.534C11.216 13.541 12.858 13.529 13.92 12.528L13.925 12.534C13.936 12.523 13.945 12.51 13.956 12.498V12.498Z" fill="#E1E8ED"/>
<path d="M2.773 5.1C3.679 6.006 5.094 6.08 6.143 5.36C6.582 4.61 6.707 3.898 6.707 3.675C4.501 5.32 2.53 3.682 2.09 2.703C1.907 3.55 2.129 4.455 2.773 5.1V5.1ZM10.074 8.938C10.371 8.519 10.602 8.116 10.709 7.842C9.303 9.13 6.617 8.186 5.804 6.143C5.446 7.093 5.629 8.187 6.374 8.933C7.378 9.936 9.011 9.927 10.074 8.938V8.938ZM13.925 12.535C13.936 12.524 13.945 12.511 13.955 12.499L13.983 12.477C14.052 12.409 14.105 12.331 14.164 12.257C14.206 12.205 14.252 12.156 14.291 12.102C14.327 12.052 14.356 12.001 14.388 11.95C14.453 11.85 14.488 11.731 14.543 11.625C12.015 12.756 10.128 10.838 9.599 9.881C9.304 10.798 9.496 11.825 10.208 12.537C11.215 13.544 12.857 13.532 13.919 12.531L13.925 12.535V12.535Z" fill="#CCD6DD"/>
</svg>
